<svg aria-hidden="true" xmlns="http://www.w3.org/2000/svg" xmlns:xlink="http://www.w3.org/1999/xlink"><symbol fill="none" viewBox="0 0 9 14" id="arrow-sl" xmlns="http://www.w3.org/2000/svg"><path d="m8.664 7.531-6.062 6.094c-.313.281-.782.281-1.063 0l-.719-.719c-.28-.281-.28-.75 0-1.062L5.633 7 .82 2.187c-.28-.312-.28-.78 0-1.062l.72-.719c.28-.281.75-.281 1.062 0L8.664 6.5a.736.736 0 0 1 0 1.031Z" fill="currentColor"/></symbol><symbol viewBox="0 0 682.667 682.667" xml:space="preserve" id="benefit-1" xmlns="http://www.w3.org/2000/svg"><defs><clipPath id="ba" clipPathUnits="userSpaceOnUse"><path d="M0 512h512V0H0Z" data-original="#000000"/></clipPath></defs><g clip-path="url(#ba)" transform="matrix(1.33333 0 0 -1.33333 0 682.667)" fill="none" stroke="currentColor" stroke-width="30" stroke-linecap="round" stroke-linejoin="round" stroke-miterlimit="10"><path d="M0 0a191.783 191.783 0 0 0 49.719-20.638l15.688 15.69a32.121 32.121 0 0 0 22.727 9.415 32.116 32.116 0 0 0 22.718-9.415l22.718-22.719a32.11 32.11 0 0 0 9.415-22.718 32.113 32.113 0 0 0-9.415-22.726L117.881-88.8a191.838 191.838 0 0 0 20.638-49.719h22.147c17.746 0 32.134-14.388 32.134-32.133v-32.134c0-17.745-14.388-32.133-32.134-32.133h-22.147a191.831 191.831 0 0 0-20.638-49.718l15.689-15.689a32.117 32.117 0 0 0 9.415-22.727 32.11 32.11 0 0 0-9.415-22.718l-22.718-22.718a32.112 32.112 0 0 0-22.718-9.415 32.117 32.117 0 0 0-22.727 9.415L49.719-352.8A191.78 191.78 0 0 0 0-373.437v-22.148c0-17.746-14.388-32.134-32.134-32.134h-32.133c-17.746 0-32.133 14.388-32.133 32.134v22.148a191.78 191.78 0 0 0-49.719 20.637l-15.689-15.689a32.115 32.115 0 0 0-22.726-9.415 32.108 32.108 0 0 0-22.718 9.415l-22.719 22.718a32.114 32.114 0 0 0-9.415 22.718 32.121 32.121 0 0 0 9.415 22.727l15.69 15.689a191.796 191.796 0 0 0-20.638 49.718h-22.147c-17.746 0-32.134 14.388-32.134 32.133v32.134c0 17.745 14.388 32.133 32.134 32.133h22.147A191.803 191.803 0 0 0-214.281-88.8l-15.69 15.689a32.117 32.117 0 0 0-9.415 22.726 32.114 32.114 0 0 0 9.415 22.718l22.719 22.719a32.112 32.112 0 0 0 22.718 9.415 32.119 32.119 0 0 0 22.726-9.415l15.689-15.69A191.783 191.783 0 0 0-96.4 0v22.148c0 17.746 14.387 32.133 32.133 32.133h32.133C-14.388 54.281 0 39.894 0 22.148Z" transform="translate(304.2 442.719)" data-original="#000000"/><path d="M0 0c53.205 0 96.4-43.195 96.4-96.4 0-53.204-43.195-96.4-96.4-96.4-53.205 0-96.4 43.196-96.4 96.4C-96.4-43.195-53.205 0 0 0Z" transform="translate(256 352.4)" data-original="#000000"/></g></symbol><symbol xml:space="preserve" viewBox="0 0 512 512" id="benefit-2" xmlns="http://www.w3.org/2000/svg"><path d="m382.996 170.703-120.022-63.012a15.006 15.006 0 0 0-13.948 0l-120.022 63.012c-.067.035-.131.076-.197.112-.073.04-.148.074-.221.115-4.502 2.554-7.53 7.385-7.603 12.847-.001.07-.007.139-.007.208V316.01h-.001a15 15 0 0 0 7.051 12.722l120.022 75.014c.106.066.216.123.323.186a14.989 14.989 0 0 0 15.58-.186l120.022-75.014a15 15 0 0 0 7.051-12.722V183.987a15.069 15.069 0 0 0-8.028-13.284zM240.997 363.956l-90.017-56.26v-97.211l90.017 54.01v99.461zM256 238.505l-89.408-53.645L256 137.92l89.408 46.94L256 238.505zm105.019 69.19-90.017 56.26v-99.461l90.017-54.01v97.211z" data-original="#000000"/><path d="M466.185 360.666H421.03c-8.481 0-15.356 6.875-15.356 15.356s6.874 15.356 15.356 15.356h14.318c-42.308 56.04-108.802 89.91-179.348 89.91-124.224 0-225.288-101.063-225.288-225.288 0-17.735 2.512-36.113 7.678-56.183 2.114-8.213-2.83-16.585-11.043-18.698-8.215-2.113-16.585 2.83-18.698 11.043C2.829 214.766.001 235.648.001 256c0 141.159 114.84 256 255.999 256a253.925 253.925 0 0 0 129.559-35.557c24.652-14.635 46.659-33.344 65.126-55.133.022 8.462 6.886 15.316 15.354 15.316 8.481 0 15.356-6.875 15.356-15.356v-43.126c1.284-9.209-5.868-17.478-15.21-17.478zM256 0a253.925 253.925 0 0 0-129.559 35.557c-24.657 14.638-46.668 33.352-65.138 55.146-.144-8.356-6.95-15.089-15.342-15.089-8.481 0-15.356 6.875-15.356 15.356v45.154c0 9.273 8.182 16.493 17.478 15.211h43.031c8.481 0 15.356-6.875 15.356-15.356s-6.874-15.357-15.355-15.357H76.652C118.96 64.582 185.454 30.712 256 30.712c124.224 0 225.288 101.064 225.288 225.288 0 17.735-2.512 36.113-7.678 56.183-2.114 8.212 2.83 16.585 11.043 18.698 8.214 2.114 16.585-2.832 18.698-11.043 5.819-22.605 8.648-43.487 8.648-63.839C511.999 114.841 397.159 0 256 0z" data-original="#000000"/></symbol><symbol fill="none" viewBox="0 0 54 57" id="benefit-3" xmlns="http://www.w3.org/2000/svg"><path d="M40.93 49.36c-.425 0-.841-.116-1.204-.336l-12.91-7.846-13.152 7.445a2.313 2.313 0 0 1-3.392-2.545l3.471-14.71L2.598 21.164a2.314 2.314 0 0 1 1.373-4.012l15.06-1.244 6.264-13.752a2.313 2.313 0 0 1 4.24.064l5.841 13.94 15.016 1.706a2.314 2.314 0 0 1 1.248 4.052l-11.458 9.859L43.2 46.583a2.313 2.313 0 0 1-2.267 2.776l-.003.001ZM26.855 36.18c.424 0 .84.117 1.203.337l9.55 5.801-2.233-10.95a2.315 2.315 0 0 1 .758-2.215l8.469-7.29L33.498 20.6a2.314 2.314 0 0 1-1.873-1.405L27.312 8.89 22.68 19.06a2.314 2.314 0 0 1-1.914 1.347l-11.137.92 8.236 7.547a2.314 2.314 0 0 1 .69 2.237l-2.563 10.876 9.725-5.505c.347-.197.74-.3 1.139-.301Z" fill="currentColor"/><path d="M15.44 13.587a2.305 2.305 0 0 1-1.636-.678l-4.75-4.75a2.314 2.314 0 0 1 3.272-3.272l4.75 4.75a2.315 2.315 0 0 1-1.636 3.95ZM26.6 56.015a2.314 2.314 0 0 1-2.314-2.313v-6.72a2.314 2.314 0 0 1 4.627 0v6.72a2.314 2.314 0 0 1-2.314 2.313Zm24.807-16.623c-.37 0-.735-.09-1.063-.26L44.38 36.04a2.313 2.313 0 0 1 2.128-4.108l5.964 3.091a2.314 2.314 0 0 1-1.066 4.368h.001Zm-49.09 0a2.314 2.314 0 0 1-1.067-4.369l5.964-3.091a2.313 2.313 0 1 1 2.129 4.108l-5.965 3.092c-.328.17-.692.26-1.061.26Zm36.706-25.805a2.313 2.313 0 0 1-1.636-3.95l4.75-4.75a2.315 2.315 0 0 1 3.273 3.272l-4.75 4.75a2.306 2.306 0 0 1-1.637.678Z" fill="currentColor"/></symbol><symbol viewBox="0 0 682.667 682.667" xml:space="preserve" id="benefit-4" xmlns="http://www.w3.org/2000/svg"><defs><clipPath id="ea" clipPathUnits="userSpaceOnUse"><path d="M0 512h512V0H0Z" data-original="#000000"/></clipPath></defs><g clip-path="url(#ea)" transform="matrix(1.33333 0 0 -1.33333 0 682.667)" fill="none" stroke="currentColor" stroke-width="30" stroke-linecap="round" stroke-linejoin="round" stroke-miterlimit="10"><path d="M0 0v-46.989s-3.759-93.288 86.072-93.288 86.073 93.288 86.073 93.288V0" transform="translate(169.928 155.283)" data-original="#000000"/><path d="m0 0 136.671-58.149a30 30 0 0 0 18.255-27.598l.002-7.545h-482l.001 7.544a30.001 30.001 0 0 0 18.255 27.6L-172.145 0" transform="translate(342.072 108.294)" data-original="#000000"/><path d="M0 0c-65.059 0-112.046 47.906-112.046 107v123.179C-89 340.499-32.112 279.832 0 279.832c32.112 0 86.072 60.667 112.046-49.653V107C112.046 47.906 65.059 0 0 0Z" transform="translate(256 118.17)" data-original="#000000"/><path d="M0 0h-40c-16.568 0-30 13.431-30 30v64.51c0 16.568 13.432 30 30 30H0Z" transform="translate(143.954 223.839)" data-original="#000000"/><path d="M0 0h-40v124.51H0c16.569 0 30-13.432 30-30V30C30 13.431 16.569 0 0 0Z" transform="translate(408.046 223.839)" data-original="#000000"/><path d="m0 0-35.211-23.48a70.007 70.007 0 0 0-38.836-11.761h-25.369" transform="translate(368.046 223.839)" data-original="#000000"/><path d="M0 0v5.189C0 84.42-33.461 148.65-143.461 148.65c-110 0-143.461-64.23-143.461-143.461V0" transform="translate(399.461 348.349)" data-original="#000000"/></g></symbol><symbol fill="none" viewBox="0 0 67 48" id="benefit-5" xmlns="http://www.w3.org/2000/svg"><path d="M50.41 30.226c-4.639 0-8.413 3.774-8.413 8.413 0 4.64 3.774 8.414 8.414 8.414s8.413-3.774 8.413-8.413c0-4.64-3.774-8.414-8.413-8.414Zm0 12.62a4.21 4.21 0 0 1-4.206-4.206 4.21 4.21 0 0 1 4.207-4.207 4.21 4.21 0 0 1 4.206 4.206 4.21 4.21 0 0 1-4.206 4.207Zm-28.745-12.62c-4.639 0-8.413 3.774-8.413 8.413 0 4.64 3.774 8.414 8.413 8.414 4.64 0 8.414-3.774 8.414-8.413 0-4.64-3.774-8.414-8.414-8.414Zm0 12.62a4.21 4.21 0 0 1-4.206-4.206 4.21 4.21 0 0 1 4.206-4.207 4.211 4.211 0 0 1 4.207 4.206 4.21 4.21 0 0 1-4.207 4.207ZM56.076 6.145a2.104 2.104 0 0 0-1.88-1.159H43.12v4.207h9.78l5.728 11.391 3.76-1.89-6.31-12.55Z" fill="currentColor"/><path d="M28.185 36.607H44.1v4.207H28.185v-4.207Zm-12.83 0H8.062a2.103 2.103 0 1 0 0 4.206h7.291a2.103 2.103 0 1 0 0-4.206Zm50.949-12.858-4.137-5.329a2.1 2.1 0 0 0-1.661-.813H45.22V2.884A2.103 2.103 0 0 0 43.118.78H8.063a2.103 2.103 0 1 0 0 4.207h32.952V19.71c0 1.162.941 2.103 2.103 2.103h16.358l3.063 3.946v10.848h-5.82a2.103 2.103 0 1 0 0 4.206h7.923a2.103 2.103 0 0 0 2.103-2.103V25.039c0-.467-.155-.922-.441-1.29Zm-51.09 2.201H5.539a2.103 2.103 0 1 0 0 4.207h9.675a2.103 2.103 0 1 0 0-4.207Zm4.838-8.273H2.103a2.103 2.103 0 1 0 0 4.207h17.949a2.103 2.103 0 1 0 0-4.207Z" fill="currentColor"/><path d="M23.487 9.403H5.54a2.103 2.103 0 1 0 0 4.207h17.948a2.103 2.103 0 1 0 0-4.207Z" fill="currentColor"/></symbol><symbol fill="none" viewBox="0 0 18 20" id="calc" xmlns="http://www.w3.org/2000/svg"><path d="M.225 0C.075 0 0 .1 0 .225V19.75c0 .125.1.225.225.225H17.25c.125 0 .225-.1.225-.225V.225c0-.15-.1-.225-.225-.225H.225ZM2.5 2.5H15v5H2.5v-5Zm0 7.5H5v2.5H2.5V10Zm5 0H10v2.5H7.5V10Zm5 0H15v7.5h-2.5V10Zm-10 5H5v2.5H2.5V15Zm5 0H10v2.5H7.5V15Z" fill="currentColor"/></symbol><symbol fill="none" viewBox="0 0 24 30" id="docs" xmlns="http://www.w3.org/2000/svg"><path d="M4.888 29.355h14.223c2.773 0 4.152-1.406 4.152-4.192v-12.16c0-1.729-.187-2.478-1.259-3.577l-7.393-7.513C13.594.868 12.763.641 11.25.641H4.888C2.13.64.736 2.06.736 4.846v20.317c0 2.799 1.393 4.192 4.152 4.192Zm.107-2.156c-1.38 0-2.103-.737-2.103-2.076V4.886c0-1.325.724-2.09 2.117-2.09h5.946v7.782c0 1.688.857 2.518 2.518 2.518h7.634v12.027c0 1.339-.71 2.076-2.103 2.076H4.995Zm8.719-16.126c-.522 0-.737-.213-.737-.75V3.212l7.714 7.862h-6.977Z" fill="currentColor"/></symbol><symbol fill="none" viewBox="0 0 16 17" id="download" xmlns="http://www.w3.org/2000/svg"><path d="m8 12.5-5-5 1.4-1.45L7 8.65V.5h2v8.15l2.6-2.6L13 7.5l-5 5Zm-6 4c-.55 0-1.02-.196-1.412-.587A1.93 1.93 0 0 1 0 14.5v-3h2v3h12v-3h2v3c0 .55-.196 1.021-.587 1.413A1.92 1.92 0 0 1 14 16.5H2Z" fill="currentColor"/></symbol><symbol fill="none" viewBox="0 0 23 23" id="gamma" xmlns="http://www.w3.org/2000/svg"><path d="M18.528 11.5a1.916 1.916 0 1 1 0-3.833 1.916 1.916 0 0 1 0 3.833Zm-3.834-5.111a1.916 1.916 0 1 1 0-3.833 1.916 1.916 0 0 1 0 3.833Zm-6.388 0a1.917 1.917 0 1 1 0-3.833 1.917 1.917 0 0 1 0 3.833ZM4.472 11.5a1.916 1.916 0 1 1 0-3.833 1.916 1.916 0 0 1 0 3.833ZM11.5 0a11.5 11.5 0 1 0 0 23 1.917 1.917 0 0 0 1.917-1.917c0-.498-.192-.945-.499-1.277a1.979 1.979 0 0 1-.485-1.278 1.916 1.916 0 0 1 1.916-1.917h2.262A6.389 6.389 0 0 0 23 10.222C23 4.574 17.85 0 11.5 0Z" fill="currentColor"/></symbol><symbol fill="none" viewBox="0 0 30 34" id="loc" xmlns="http://www.w3.org/2000/svg"><path d="M15.971 32.287a1.664 1.664 0 0 1-1.941 0C5.66 26.32-3.224 14.048 5.757 5.18A13.173 13.173 0 0 1 15 1.398c3.466 0 6.793 1.361 9.244 3.78 8.98 8.869.097 21.139-8.274 27.109Z" stroke="currentColor" stroke-width="2.5" stroke-linecap="round" stroke-linejoin="round"/><path d="M15 16.995a3.466 3.466 0 1 0 0-6.933 3.466 3.466 0 0 0 0 6.933Z" stroke="currentColor" stroke-width="2.5" stroke-linecap="round" stroke-linejoin="round"/></symbol><symbol fill="none" viewBox="0 0 19 16" id="mail" xmlns="http://www.w3.org/2000/svg"><path d="M2.667 1H16c.917 0 1.667.75 1.667 1.667v10c0 .916-.75 1.666-1.667 1.666H2.667c-.917 0-1.667-.75-1.667-1.666v-10C1 1.75 1.75 1 2.667 1Z" stroke="currentColor" stroke-width="1.667" stroke-linecap="round" stroke-linejoin="round"/><path d="M17.667 2.666 9.333 8.499 1 2.666" stroke="currentColor" stroke-width="1.667" stroke-linecap="round" stroke-linejoin="round"/></symbol><symbol fill="none" viewBox="0 0 30 29" id="phone" xmlns="http://www.w3.org/2000/svg"><path d="m20.581 19.815.702-.71-1.63-1.668-.698.71 1.626 1.668Zm3.054-1.008 2.94 1.63 1.1-2.067-2.939-1.627-1.101 2.064Zm3.504 4.865-2.184 2.215 1.626 1.666 2.184-2.213-1.626-1.668Zm-3.516 2.926c-2.23.213-8 .024-14.248-6.306l-1.628 1.666c6.818 6.909 13.308 7.247 16.091 6.982l-.215-2.342ZM9.375 20.292C3.42 14.257 2.432 9.182 2.309 6.98l-2.304.133c.154 2.772 1.377 8.396 7.742 14.845l1.628-1.666Zm2.115-9.688.441-.448-1.624-1.667-.442.447 1.625 1.668Zm.792-6.147-1.938-2.64-1.848 1.411 1.939 2.639 1.847-1.41ZM3.82 1.242 1.405 3.688l1.627 1.668L5.446 2.91 3.82 1.242Zm6.858 8.528c-.816-.834-.816-.834-.816-.83H9.86l-.004.006a1.562 1.562 0 0 0-.196.246 2.41 2.41 0 0 0-.25.498 3.351 3.351 0 0 0-.136 1.679c.206 1.356 1.123 3.148 3.47 5.527l1.628-1.668c-2.198-2.226-2.721-3.58-2.818-4.22-.046-.304.002-.454.015-.489.01-.02.01-.024 0-.009a.466.466 0 0 1-.046.061l-.015.016-.015.014-.814-.83Zm2.066 7.126c2.349 2.38 4.116 3.308 5.448 3.515.682.107 1.231.022 1.648-.136.233-.087.452-.212.646-.37l.077-.07.01-.01.005-.005.002-.003s.001-.002-.812-.836c-.816-.834-.811-.835-.811-.835l.003-.003.003-.003.01-.008.015-.016.058-.047c.015-.01.01-.008-.01.003-.04.014-.19.063-.493.016-.637-.1-1.975-.634-4.172-2.86l-1.627 1.668Zm-2.4-15.08C8.774-.316 5.692-.654 3.82 1.242L5.446 2.91c.818-.829 2.27-.743 3.05.318l1.848-1.412ZM2.31 6.981c-.03-.542.214-1.11.721-1.624L1.403 3.69C.577 4.526-.074 5.712.005 7.113l2.306-.132Zm22.644 18.906c-.422.43-.877.67-1.33.713l.213 2.34c1.13-.108 2.055-.688 2.744-1.385l-1.627-1.668ZM11.932 10.156c1.515-1.535 1.627-3.96.352-5.697l-1.848 1.41c.62.844.528 1.953-.13 2.622l1.626 1.665Zm14.644 10.282c1.257.696 1.452 2.335.565 3.235l1.627 1.667c2.062-2.09 1.426-5.575-1.092-6.968l-1.1 2.066Zm-5.293-1.331c.59-.6 1.541-.746 2.354-.298l1.1-2.065c-1.667-.925-3.734-.669-5.082.695l1.628 1.668Z" fill="currentColor"/></symbol><symbol fill="none" viewBox="0 0 22 24" id="search" xmlns="http://www.w3.org/2000/svg"><circle cx="10.5" cy="10.62" r="9.5" stroke="currentColor" stroke-width="2"/><path d="m16.8 18.6 3.78 3.78" stroke="currentColor" stroke-width="2"/></symbol><symbol fill="none" viewBox="0 0 26 26" id="work" xmlns="http://www.w3.org/2000/svg"><path d="M13 .001c7.18 0 13 5.82 13 13s-5.82 13-13 13-13-5.82-13-13 5.82-13 13-13Zm0 2.6a10.4 10.4 0 1 0 0 20.8 10.4 10.4 0 0 0 0-20.8Zm0 2.6a1.3 1.3 0 0 1 1.29 1.148l.01.152v5.962l3.52 3.52a1.3 1.3 0 0 1-1.717 1.945l-.122-.107-3.9-3.9a1.3 1.3 0 0 1-.37-.75l-.011-.17v-6.5a1.3 1.3 0 0 1 1.3-1.3Z" fill="currentColor"/></symbol><symbol fill="none" viewBox="0 0 22 22" id="wp" xmlns="http://www.w3.org/2000/svg"><path d="M17.742 4.172a9.467 9.467 0 0 0-6.746-2.797 9.55 9.55 0 0 0-8.267 14.309l-1.354 4.941 5.057-1.328a9.51 9.51 0 0 0 4.56 1.16h.004c5.255 0 9.629-4.28 9.629-9.539 0-2.548-1.083-4.941-2.883-6.746ZM10.996 18.85a7.914 7.914 0 0 1-4.04-1.104l-.287-.172-3 .786.8-2.926-.19-.3a7.902 7.902 0 0 1-1.211-4.22c0-4.37 3.558-7.928 7.932-7.928 2.118 0 4.108.825 5.603 2.325 1.495 1.5 2.415 3.489 2.41 5.607 0 4.375-3.647 7.932-8.017 7.932Zm4.348-5.938c-.236-.12-1.41-.696-1.628-.773-.22-.082-.378-.12-.537.12-.16.24-.615.773-.757.937-.137.159-.279.18-.515.06-1.401-.7-2.32-1.25-3.245-2.836-.244-.421.245-.391.7-1.302.078-.159.04-.297-.02-.417s-.538-1.293-.735-1.77c-.194-.464-.391-.4-.537-.408-.138-.009-.297-.009-.456-.009a.883.883 0 0 0-.636.297c-.219.24-.833.816-.833 1.989s.855 2.307.97 2.466c.12.16 1.68 2.566 4.074 3.601 1.513.653 2.105.71 2.862.597.46-.068 1.41-.575 1.607-1.134.197-.559.197-1.036.137-1.134-.056-.108-.214-.168-.45-.284Z" fill="currentColor"/></symbol></svg>