<svg width="133" height="133" viewBox="0 0 133 133" fill="none" xmlns="http://www.w3.org/2000/svg">
<circle opacity="0.1" cx="66.5" cy="66.5" r="66.5" fill="#393939"/>
<circle opacity="0.5" cx="66.5" cy="66.5" r="52.5" fill="#393939"/>
<circle cx="66.5" cy="66.5" r="35.5" fill="#393939"/>
<path d="M67.9704 81.8882C67.6875 82.0914 67.348 82.2007 66.9997 82.2007C66.6514 82.2007 66.3119 82.0914 66.029 81.8882C57.6587 75.922 48.7753 63.65 57.7558 54.7822C60.2212 52.3569 63.5414 50.9985 66.9997 51C70.4664 51 73.7927 52.3607 76.2436 54.7804C85.2241 63.6482 76.3407 75.9186 67.9704 81.8882Z" stroke="#E5C20D" stroke-width="2.5" stroke-linecap="round" stroke-linejoin="round"/>
<path d="M66.9989 66.5965C67.9183 66.5965 68.8001 66.2312 69.4502 65.5811C70.1004 64.931 70.4656 64.0492 70.4656 63.1298C70.4656 62.2104 70.1004 61.3286 69.4502 60.6785C68.8001 60.0283 67.9183 59.6631 66.9989 59.6631C66.0795 59.6631 65.1977 60.0283 64.5476 60.6785C63.8975 61.3286 63.5322 62.2104 63.5322 63.1298C63.5322 64.0492 63.8975 64.931 64.5476 65.5811C65.1977 66.2312 66.0795 66.5965 66.9989 66.5965Z" stroke="#E5C20D" stroke-width="2.5" stroke-linecap="round" stroke-linejoin="round"/>
</svg>
